<svg width="21" height="20" viewBox="0 0 21 20" fill="none" xmlns="http://www.w3.org/2000/svg">
<g clip-path="url(#clip0_706:32827)">
<path d="M10.5996 5.85938C8.33826 5.85938 6.49805 7.69959 6.49805 9.96094C6.49805 12.2223 8.33826 14.0625 10.5996 14.0625C12.861 14.0625 14.7012 12.2223 14.7012 9.96094C14.7012 7.69959 12.861 5.85938 10.5996 5.85938ZM13.3576 9.20334L10.428 12.133C10.3135 12.2475 10.1635 12.3047 10.0137 12.3047C9.86384 12.3047 9.71384 12.2475 9.5994 12.133L7.84159 10.3752C7.6127 10.1463 7.6127 9.77555 7.84159 9.54667C8.07047 9.31779 8.44126 9.31779 8.67014 9.54667L10.0137 10.8902L12.5291 8.37479C12.758 8.14591 13.1288 8.14591 13.3576 8.37479C13.5865 8.60367 13.5865 8.97446 13.3576 9.20334Z" fill="white"/>
<path d="M17.6309 2.34302H16.2582C14.2771 2.34302 12.4147 1.53263 11.0139 0.131867C10.785 -0.0970155 10.4142 -0.0970155 10.1853 0.131867C8.78459 1.53263 6.92209 2.34302 4.94104 2.34302L3.56836 2.34302C3.24442 2.34302 2.98242 2.60502 2.98242 2.92896L2.98242 9.96022C2.98242 15.2256 6.81391 17.6748 9.34931 19.2695C9.5811 19.4149 10.3529 19.9602 10.5996 19.9602C10.8457 19.9602 11.5971 19.4289 11.8281 19.2838C14.3722 17.688 18.2168 15.2364 18.2168 9.96022V2.92896C18.2168 2.60502 17.9547 2.34302 17.6309 2.34302ZM10.5996 15.2337C7.6916 15.2337 5.32618 12.8681 5.32618 9.96022C5.32618 7.0522 7.6916 4.68677 10.5996 4.68677C13.5075 4.68677 15.8731 7.0522 15.8731 9.96022C15.8731 12.8681 13.5075 15.2337 10.5996 15.2337Z" fill="#D3D3D3"/>
</g>
<defs>
<clipPath id="clip0_706:32827">
<rect width="20" height="20" fill="white" transform="translate(0.599609)"/>
</clipPath>
</defs>
</svg>
